<?xml version="1.0" encoding="UTF-8" standalone="no"?><!-- Generator: Gravit.io --><svg xmlns="http://www.w3.org/2000/svg" xmlns:xlink="http://www.w3.org/1999/xlink" style="isolation:isolate" viewBox="0 0 1000 891" width="1000pt" height="891pt"><defs><clipPath id="_clipPath_sUIKb1Qk2zE5qAqNDHSOyDxiRC4zvj8X"><rect width="1000" height="891"/></clipPath></defs><g clip-path="url(#_clipPath_sUIKb1Qk2zE5qAqNDHSOyDxiRC4zvj8X)"><g><path d=" M 93.962 734.287 L 85.225 742.76 L 84.5 748.045 L 86.516 751.363 L 157.131 783.859 L 202.621 807.396 L 257.623 833.631 L 320.551 864.439 L 365.095 869.473 L 454.902 871.779 L 481.398 441.724 L 179.17 423.856 L 172.969 483.316 L 167.243 483.844 L 161.9 493.728 L 152.895 494.06 L 147.602 484.643 L 137.714 484.227 L 134.115 480.418 L 130.852 480.688 L 127.758 482.996 L 121.128 487.238 L 122.773 512.147 L 122.462 518.331 L 124.124 563.357 L 119.462 571.543 L 118.399 583.537 L 129.633 600.265 L 135.834 620.692 L 138.992 624.127 L 142.83 625.863 L 143.095 634.053 L 137.79 639.417 L 126.06 646.543 L 119.7 654.048 L 115.475 667.535 L 114.883 685.238 L 105.496 695.867 L 98.357 698.919 L 99.085 701.84 L 97.959 708.091 L 99.826 710.811 L 113.043 711.773 L 111.812 721.729 L 107.15 729.914 L 93.962 734.287 L 93.962 734.287 Z " fill="rgb(237,247,202)" vector-effect="non-scaling-stroke" stroke-width="6" stroke="rgb(91,91,91)" stroke-linejoin="miter" stroke-linecap="butt" stroke-miterlimit="4"/><path d=" M 481.396 441.837 L 179.134 424.134 L 219.454 16.592 L 388.913 34.02 L 386.745 72.381 L 382.376 120.053 L 410.502 121.067 L 469.562 122.677 L 499.106 123.313 L 481.396 441.837 L 481.396 441.837 Z " fill="rgb(255,173,140)" vector-effect="non-scaling-stroke" stroke-width="6" stroke="rgb(91,91,91)" stroke-linejoin="miter" stroke-linecap="butt" stroke-miterlimit="4"/><clipPath id="_clipPath_3NL08fpuVjBGpRJxcgBwH4ZFr1AOVuwc"><path d=" M 481.396 441.837 L 179.134 424.134 L 219.454 16.592 L 388.913 34.02 L 386.745 72.381 L 382.376 120.053 L 410.502 121.067 L 469.562 122.677 L 499.106 123.313 L 481.396 441.837 L 481.396 441.837 Z " fill="rgb(255,173,140)" vector-effect="non-scaling-stroke" stroke-width="6" stroke="rgb(91,91,91)" stroke-linejoin="miter" stroke-linecap="butt" stroke-miterlimit="4"/></clipPath><g clip-path="url(#_clipPath_3NL08fpuVjBGpRJxcgBwH4ZFr1AOVuwc)"><path d=" M 285.089 48.693 C 280.659 52.968 282.626 62.757 286.751 66.904 L 291.932 71.532 C 292.725 71.76 294.517 71.172 294.987 71.97 C 297.822 76.777 295.867 88.848 297.836 91.05 C 300.366 93.877 303.793 91.057 306.754 91.197 C 307.176 91.216 307.702 91.311 308.03 91.584 C 308.814 92.228 309.907 93.776 310.737 94.61 L 316.067 103.469 C 316.893 105.056 315.152 105.706 315.936 106.475 C 317.523 108.033 323.907 112.176 320.74 114.927 C 320.364 115.254 322.588 122.103 322.822 122.302 C 323.501 122.883 326.942 122.717 326.706 123.318 C 326.557 123.696 323.916 124.294 323.45 124.376 C 317.442 125.432 319.526 108.976 312.328 107.182 C 308.701 106.28 310.52 111.559 310.515 112.643 C 310.508 114.242 309.317 115.491 309.523 117.176 C 309.891 120.224 313.275 128.797 312.789 130.145 L 312.547 131.015 C 311.203 134.295 292.829 143.901 295.632 133.537 C 297.062 127.217 293.046 129.231 292.262 124.82 C 291.826 122.37 293.062 116.851 291.041 114.441 C 290.394 113.67 288.655 114.141 288.398 112.695 C 288.188 111.516 287.76 103.888 287.869 102.716 C 287.921 102.161 287.82 101.284 287.372 100.881 C 283.426 97.354 277.654 109.014 277.557 109.035 C 277.396 109.071 277.073 108.217 277.025 108.1 L 275.533 105.077 C 272.573 97.493 275.157 99.035 275.189 92.041 C 275.191 91.32 271.03 78.022 270.732 77.622 C 270.423 77.207 268.081 74.177 268.084 73.949 C 268.27 62.878 267.491 59.572 273.262 49.144 C 275.75 44.653 288.035 45.853 285.091 48.694 L 285.089 48.693 Z  M 309.374 97.134 C 312.039 103.1 310.013 102.268 307.09 97.922 C 306.299 96.75 303.876 96.996 303.473 95.646 C 304.365 95.216 304.932 95.442 305.443 95.448 C 306.98 95.462 308.655 95.523 309.374 97.134 L 309.374 97.134 Z " fill-rule="evenodd" fill="rgb(255,255,255)" vector-effect="non-scaling-stroke" stroke-width="0.557" stroke="rgb(255,255,255)" stroke-linejoin="round" stroke-linecap="butt" stroke-miterlimit="3.8636899"/></g><path d=" M 481.396 441.837 L 179.134 424.134 L 219.454 16.592 L 388.913 34.02 L 386.745 72.381 L 382.376 120.053 L 410.502 121.067 L 469.562 122.677 L 499.106 123.313 L 481.396 441.837 L 481.396 441.837 Z " fill="transparent" vector-effect="non-scaling-stroke" stroke-width="6" stroke="rgb(91,91,91)" stroke-linejoin="miter" stroke-linecap="butt" stroke-miterlimit="4"/><path d=" M 914.588 445.101 L 906.672 135.7 L 498.446 123.967 L 480.757 441.278 L 914.588 445.101 Z " fill="rgb(244,219,191)" vector-effect="non-scaling-stroke" stroke-width="6" stroke="rgb(91,91,91)" stroke-linejoin="miter" stroke-linecap="butt" stroke-miterlimit="4"/><path d=" M 617.144 839.761 L 612.98 823.051 L 643.971 822.381 L 752.474 824.01 L 850.248 822.013 L 852.645 754.623 L 849.959 554.155 L 850.452 484.474 L 856.096 484.47 L 855.755 444.403 L 481.597 437.071 L 454.624 871.863 L 510.364 874.408 L 512.028 838.272 L 617.144 839.761 L 617.144 839.761 Z " fill="rgb(255,174,197)" vector-effect="non-scaling-stroke" stroke-width="6" stroke="rgb(91,91,91)" stroke-linejoin="miter" stroke-linecap="butt" stroke-miterlimit="4"/></g></g></svg>